<svg xmlns="http://www.w3.org/2000/svg" viewBox="0 0 2732.59 525"><defs><style>.cls-1{fill:#fff;}.cls-1,.cls-2,.cls-3,.cls-4,.cls-5{stroke:#000;stroke-miterlimit:10;stroke-width:25px;}.cls-2{fill:#e9252a;}.cls-3{fill:#f59a22;}.cls-4{fill:#f05a27;}.cls-5{fill:#fbd00d;}</style></defs><g id="Layer_2" data-name="Layer 2"><g id="Layer_1-2" data-name="Layer 1"><path class="cls-1" d="M162.5,12.5H12.5v500h100v-150h50a175,175,0,0,0,0-350Z"/><path class="cls-2" d="M167.5,122.5h-55v130h55a65,65,0,0,0,0-130Z"/><path class="cls-1" d="M662.5,187.5a175,175,0,0,0-175-175h-150v500h100v-150h21.25l93.75,150h105L555.25,348.9A175.06,175.06,0,0,0,662.5,187.5Z"/><path class="cls-3" d="M492.5,122.5h-55v130h55a65,65,0,0,0,0-130Z"/><path class="cls-1" d="M883.56,487.5c-124.27,0-225-100.74-225-225s100.73-225,225-225Z"/><path class="cls-1" d="M883.56,487.5c124.26,0,225-100.74,225-225s-100.74-225-225-225Z"/><circle class="cls-4" cx="883.56" cy="262.5" r="87.5"/><polygon class="cls-1" points="1304.69 512.5 1194.69 512.5 1051.9 12.5 1161.9 12.5 1304.69 512.5"/><polygon class="cls-1" points="1451.89 12.5 1341.89 12.5 1199.1 512.5 1309.1 512.5 1451.89 12.5"/><path class="cls-1" d="M1614.45,487.5c-124.27,0-225-100.74-225-225s100.73-225,225-225Z"/><path class="cls-1" d="M1614.45,487.5c124.26,0,225-100.74,225-225s-100.74-225-225-225Z"/><circle class="cls-5" cx="1614.45" cy="262.5" r="87.5"/><polygon class="cls-1" points="2019.31 262.31 2145.09 512.5 2025.09 512.5 1959.2 381.44 2019.31 262.31"/><polygon class="cls-1" points="2145.09 12.5 2025.09 12.5 1939.45 182.2 1939.45 12.5 1839.45 12.5 1839.45 512.5 1939.45 512.5 1939.45 419.98 1939.45 419.98 2145.09 12.5"/><polygon class="cls-1" points="2420.09 112.5 2420.09 12.5 2245.09 12.5 2145.09 12.5 2145.09 512.5 2245.09 512.5 2420.09 512.5 2420.09 412.5 2245.09 412.5 2245.09 300.8 2360.09 300.8 2360.09 200.8 2245.09 200.8 2245.09 112.5 2420.09 112.5"/><path class="cls-1" d="M2520.09,12.5h-100v500h100c110.46,0,200-111.93,200-250S2630.55,12.5,2520.09,12.5Z"/><path class="cls-4" d="M2520.09,137.5c55.23,0,100,56,100,125s-44.77,125-100,125Z"/></g></g></svg>